<?xml version="1.0" encoding="UTF-8"?>
<svg width="24px" height="24px" viewBox="0 0 24 24" version="1.1" xmlns="http://www.w3.org/2000/svg" xmlns:xlink="http://www.w3.org/1999/xlink">
    <title>87FC50B2-AC9F-426B-B712-B34BECEEE75E</title>
    <g id="⚙️-Master-Icon-Symbols" stroke="none" stroke-width="1" fill="none" fill-rule="evenodd">
        <g id="System/Chat-Bot" fill="#000000" fill-rule="nonzero">
            <path d="M11.8942795,1.83403848 C13.0447084,1.83403848 13.9773154,2.76534702 13.9773154,3.91417434 C13.9773154,4.76321642 13.4679287,5.49345052 12.7376906,5.81674314 L12.5887837,5.8758904 L12.5872795,6.87103848 L18.1604231,6.87175609 L18.3326344,6.87984911 C19.5045388,6.97986289 20.4226487,7.92266798 20.5002691,9.08524794 L20.5055889,9.2450853 L20.5051854,11.0326864 L20.5933303,11.0334224 L20.7383674,11.0460723 C21.3555038,11.1373537 21.8275801,11.6380547 21.8877808,12.2516867 L21.8942795,12.3847997 L21.891827,15.3805991 L21.8762196,15.5411865 C21.7880282,16.0756553 21.3888099,16.5026619 20.8275479,16.6375983 L20.6839427,16.6651408 L20.5390287,16.6737667 L20.5051854,16.6734041 L20.5048375,18.4934572 L20.4958446,18.6759938 C20.3971255,19.7652058 19.5639026,20.6405421 18.4673803,20.8076781 L18.3009861,20.8273752 L18.128358,20.8340385 L5.62866142,20.8333689 L5.45592461,20.8253534 C4.2840202,20.7253396 3.36591024,19.7825345 3.28828992,18.6199546 L3.28297007,18.4601172 L3.28240374,16.671428 L3.19522867,16.67178 L3.05019159,16.6591302 C2.43305514,16.5678488 1.96097885,16.0671478 1.90077817,15.4535158 L1.89427948,15.3204027 L1.89626895,12.3305737 L1.90893646,12.1857386 C2.00034514,11.5694613 2.50174414,11.0980422 3.11623164,11.0379254 L3.24953028,11.0314357 L3.28240374,11.0307103 L3.28364063,9.21358967 L3.29166728,9.04109335 C3.39182105,7.87081393 4.3359456,6.9538966 5.50014149,6.87637691 L5.66020096,6.87106396 L11.1992795,6.87103848 L11.1997752,5.8758904 L11.049724,5.81623609 C10.4120929,5.53348203 9.94307097,4.94037502 9.83493453,4.22892363 L9.81647374,4.06272915 L9.8112436,3.91417434 L9.81647374,3.76561953 C9.89275162,2.68612418 10.7938692,1.83403848 11.8942795,1.83403848 Z M17.8283179,8.89594656 L6.14495207,8.89657577 C5.74503162,8.89657577 5.40683668,9.16843307 5.3263324,9.51250627 L5.31091295,9.6079849 L5.30590416,9.70743432 L5.30590416,12.6786571 L4.00124151,12.6779976 L4.00124151,15.1130178 L5.30590416,15.1133475 L5.30590416,18.0845702 C5.30590416,18.4710414 5.58719381,18.7978147 5.94323382,18.8755993 L6.04203377,18.8904979 L6.14495207,18.8953378 L17.8288116,18.8959466 L17.9316277,18.8923358 C18.2979791,18.862082 18.5981877,18.6026393 18.675522,18.2862427 L18.6918794,18.1897873 L18.69749,18.0845702 L18.69749,15.1133475 L20.0012415,15.1148142 L20.0012415,12.6779976 L18.69749,12.6786571 L18.69749,9.70743432 C18.69749,9.32096318 18.4162004,8.99418989 18.0597801,8.91638944 L17.9608667,8.90148622 L17.8283179,8.89594656 Z M13.9917586,15.3555945 C13.9917586,16.5127263 13.0524102,17.4507669 11.8936653,17.4507669 C10.7853006,17.4507669 9.87766922,16.5925218 9.80083996,15.5052232 L9.79557201,15.3555945 L13.9917586,15.3555945 Z M8.88483569,10.6078294 C9.58787561,10.6078294 10.1578021,11.1769624 10.1578021,11.8790236 C10.1578021,12.5810847 9.58787561,13.1502177 8.88483569,13.1502177 C8.18179578,13.1502177 7.61186932,12.5810847 7.61186932,11.8790236 C7.61186932,11.1769624 8.18179578,10.6078294 8.88483569,10.6078294 Z M14.9037233,10.6078294 C15.6067632,10.6078294 16.1766896,11.1769624 16.1766896,11.8790236 C16.1766896,12.5810847 15.6067632,13.1502177 14.9037233,13.1502177 C14.2006834,13.1502177 13.6307569,12.5810847 13.6307569,11.8790236 C13.6307569,11.1769624 14.2006834,10.6078294 14.9037233,10.6078294 Z" id="Combined-Shape"></path>
        </g>
    </g>
</svg>