<?xml version="1.0" encoding="UTF-8"?>
<svg width="80px" height="60px" viewBox="0 0 80 60" version="1.1" xmlns="http://www.w3.org/2000/svg" xmlns:xlink="http://www.w3.org/1999/xlink">
    <title>C1D9EE5D-2BDA-4A33-A9EC-772CD16064E5</title>
    <g id="Misc" stroke="none" stroke-width="1" fill="none" fill-rule="evenodd">
        <g id="narrative_logos" transform="translate(-150.000000, -678.000000)" fill-rule="nonzero">
            <g id="marriott" transform="translate(0.000000, 608.000000)">
                <g id="marriott-logo" transform="translate(150.000000, 70.000000)">
                    <path d="M5.35688006,49.4499018 C6.57346088,49.4499018 7.73117488,49.2534381 8.83002208,48.8605108 C9.92886927,48.4675835 10.9296051,47.9371316 11.8322296,47.2691552 L11.8322296,47.2691552 L11.8322296,47.3280943 C11.8322296,47.3280943 12.803532,46.453831 14.7461369,44.7053045 C16.6887417,42.956778 18.876625,39.0373281 21.3097866,32.9469548 C21.3097866,32.9469548 21.6531764,32.1905697 22.3399558,30.6777996 C23.0267353,29.1650295 23.6055923,27.7996071 24.0765269,26.5815324 L24.0765269,26.5815324 L24.1942605,26.2868369 L32.8476821,45.7367387 L44.6799117,45.7367387 L38.5577631,32.0628684 L41.7954378,24.7544204 L51.0963944,45.7367387 L62.928624,45.7367387 L43.1493745,0.766208251 L33.200883,5.36345776 L40.147167,21.0412574 L36.9094923,28.3497053 L24.5474614,-2.84217094e-14 L14.4812362,4.42043222 L22.5459897,22.5147348 L22.5459897,22.5147348 L22.5459897,22.5736739 C21.2901643,25.4027505 19.9950944,27.7603143 18.66078,29.6463654 C17.3657101,31.5324165 16.1589404,33.0353635 15.0404709,34.1552063 C13.9220015,35.2750491 12.9899436,36.0707269 12.2442973,36.5422397 C11.4594064,37.0137525 10.9884719,37.2691552 10.8314937,37.3084479 C10.125092,37.5834971 9.39906794,37.7996071 8.65342163,37.956778 C7.90777532,38.1139489 7.12288447,38.1925344 6.29874908,38.1925344 C6.06328182,38.1925344 5.82781457,38.1827112 5.59234731,38.1630648 C5.35688006,38.1434185 5.1214128,38.1139489 4.88594555,38.0746562 L4.88594555,38.0746562 L3.55271368e-14,48.0353635 C0.824135394,48.4675835 1.67770419,48.8113949 2.5607064,49.0667976 C3.44370861,49.3222004 4.37576649,49.4499018 5.35688006,49.4499018 Z" id="Path" fill="#A70023"></path>
                    <path d="M60.2207506,52.632613 C60.4562178,52.632613 60.7014962,52.6522593 60.9565857,52.6915521 C61.2116753,52.7308448 61.4373314,52.8094303 61.6335541,52.9273084 C61.8690213,53.0058939 62.0848663,53.1139489 62.281089,53.2514735 C62.4773117,53.388998 62.6539122,53.5363458 62.8108904,53.6935167 C62.9678685,53.8506876 63.1150356,54.0275049 63.2523915,54.2239686 C63.3897474,54.4204322 63.4976699,54.6365422 63.5761589,54.8722986 C63.654648,55.108055 63.723326,55.3438114 63.7821928,55.5795678 C63.8410596,55.8153242 63.870493,56.0510806 63.870493,56.2868369 C63.870493,56.5618861 63.8410596,56.8172888 63.7821928,57.0530452 C63.723326,57.2888016 63.654648,57.524558 63.5761589,57.7603143 C63.4976699,57.9960707 63.3897474,58.2121807 63.2523915,58.4086444 C63.1150356,58.6051081 62.9678685,58.7819253 62.8108904,58.9390963 C62.6539122,59.0962672 62.4773117,59.2436149 62.281089,59.3811395 C62.0848663,59.518664 61.8690213,59.6267191 61.6335541,59.7053045 C61.4373314,59.8231827 61.2116753,59.9017682 60.9565857,59.9410609 C60.7014962,59.9803536 60.4562178,60 60.2207506,60 C59.9460388,60 59.6909492,59.9803536 59.455482,59.9410609 C59.2200147,59.9017682 59.0041697,59.8231827 58.807947,59.7053045 C58.5724798,59.6267191 58.3566348,59.518664 58.1604121,59.3811395 C57.9641894,59.2436149 57.7875889,59.0962672 57.6306107,58.9390963 C57.4736326,58.7819253 57.3264655,58.6051081 57.1891096,58.4086444 C57.0517537,58.2121807 56.9438312,57.9960707 56.8653422,57.7603143 C56.7476085,57.524558 56.6691195,57.2888016 56.6298749,57.0530452 C56.5906304,56.8172888 56.5710081,56.5618861 56.5710081,56.2868369 C56.5710081,56.0510806 56.5906304,55.8153242 56.6298749,55.5795678 C56.6691195,55.3438114 56.7476085,55.108055 56.8653422,54.8722986 C56.9438312,54.6365422 57.0517537,54.4204322 57.1891096,54.2239686 C57.3264655,54.0275049 57.4736326,53.8506876 57.6306107,53.6935167 C57.7875889,53.5363458 57.9641894,53.388998 58.1604121,53.2514735 C58.3566348,53.1139489 58.5528575,53.0058939 58.7490802,52.9273084 C58.9845475,52.8094303 59.2200147,52.7308448 59.455482,52.6915521 C59.6909492,52.6522593 59.9460388,52.632613 60.2207506,52.632613 Z M16.8359088,52.8094303 L18.9551141,56.1100196 L21.0154525,52.8094303 L22.2516556,52.8094303 L22.6048565,59.8231827 L21.3097866,59.8231827 L21.0743194,54.9312377 L19.1905813,57.8192534 L18.6019132,57.8192534 L16.7181751,55.0491159 L16.4827079,59.8231827 L15.2465048,59.8231827 L15.5997057,52.8094303 L16.8359088,52.8094303 Z M29.2568065,52.8094303 L31.9646799,59.8231827 L30.4930096,59.8231827 L29.8454746,58.0550098 L27.2553348,58.0550098 L26.6077999,59.8231827 L25.2538631,59.8231827 L27.9028698,52.8094303 L29.2568065,52.8094303 Z M37.3804268,52.8094303 L37.5766495,52.815979 C37.7074646,52.8247108 37.8382798,52.8421742 37.9690949,52.8683694 C38.1653176,52.9076621 38.3419181,52.9469548 38.4988962,52.9862475 C38.6558744,53.064833 38.7932303,53.1434185 38.9109639,53.2220039 C39.0286976,53.3005894 39.1464312,53.3988212 39.2641648,53.5166994 C39.3426539,53.6345776 39.4113319,53.7426326 39.4701987,53.8408644 C39.5290655,53.9390963 39.5977434,54.0471513 39.6762325,54.1650295 C39.7154771,54.3222004 39.7449105,54.459725 39.7645327,54.5776031 C39.784155,54.6954813 39.7939662,54.7937132 39.7939662,54.8722986 C39.7939662,55.108055 39.7645327,55.324165 39.7056659,55.5206287 C39.6467991,55.7170923 39.5781212,55.8939096 39.4996321,56.0510806 C39.3818985,56.2475442 39.2543537,56.4145383 39.1169978,56.5520629 C39.0139809,56.6552063 38.8944077,56.7417731 38.7582781,56.8117633 L38.6166299,56.8762279 L40.2060338,59.8231827 L38.7343635,59.8231827 L37.32156,57.0530452 L35.9676233,57.0530452 L35.9676233,59.8231827 L34.7314202,59.8231827 L34.7314202,52.8094303 L37.3804268,52.8094303 Z M45.857248,52.8094303 L46.0283297,52.8131139 C46.1938926,52.8204813 46.3428992,52.8388998 46.4753495,52.8683694 C46.65195,52.9076621 46.8187393,52.9469548 46.9757174,52.9862475 C47.1326956,53.064833 47.2798626,53.1434185 47.4172185,53.2220039 C47.5545744,53.3005894 47.6624969,53.3988212 47.740986,53.5166994 C47.8194751,53.6345776 47.8979642,53.7426326 47.9764533,53.8408644 C48.0549424,53.9390963 48.1138092,54.0471513 48.1530537,54.1650295 C48.1922983,54.3222004 48.2217317,54.459725 48.2413539,54.5776031 C48.2609762,54.6954813 48.2707873,54.7937132 48.2707873,54.8722986 C48.2707873,55.108055 48.2511651,55.324165 48.2119205,55.5206287 C48.172676,55.7170923 48.0941869,55.8939096 47.9764533,56.0510806 C47.8979642,56.2475442 47.7802306,56.4145383 47.6232524,56.5520629 C47.5055188,56.6552063 47.3767476,56.7417731 47.2369389,56.8117633 L47.0934511,56.8762279 L48.7417219,59.8231827 L47.2111847,59.8231827 L45.7983812,57.0530452 L44.5033113,57.0530452 L44.5033113,59.8231827 L43.2082414,59.8231827 L43.2082414,52.8094303 L45.857248,52.8094303 Z M53.3922001,52.8094303 L53.3922001,59.8231827 L52.0382634,59.8231827 L52.0382634,52.8094303 L53.3922001,52.8094303 Z M71.6409124,52.8094303 L71.6409124,53.9882122 L69.2862399,53.9882122 L69.2862399,59.8231827 L67.99117,59.8231827 L67.99117,53.9882122 L65.5776306,53.9882122 L65.5776306,52.8094303 L71.6409124,52.8094303 Z M80,52.8094303 L80,53.9882122 L77.5864606,53.9882122 L77.5864606,59.8231827 L76.2913907,59.8231827 L76.2913907,53.9882122 L73.9367182,53.9882122 L73.9367182,52.8094303 L80,52.8094303 Z M60.2207506,53.8113949 C60.0245278,53.8113949 59.8479274,53.8310413 59.6909492,53.870334 C59.5339711,53.9096267 59.3966152,53.9489194 59.2788815,53.9882122 C59.1219034,54.0667976 58.9845475,54.1453831 58.8668138,54.2239686 C58.7490802,54.302554 58.6509688,54.4007859 58.5724798,54.518664 C58.4547461,54.6365422 58.3566348,54.7642436 58.2781457,54.9017682 C58.1996566,55.0392927 58.1407898,55.1866405 58.1015453,55.3438114 C58.0623007,55.4616896 58.0230562,55.6090373 57.9838116,55.7858546 C57.9445671,55.9626719 57.9249448,56.129666 57.9249448,56.2868369 C57.9249448,56.3916176 57.9336658,56.4963982 57.9511078,56.6011788 L57.9838116,56.7583497 L58.1015453,57.2298625 L58.1473306,57.383759 C58.1822146,57.4841738 58.2258196,57.5802227 58.2781457,57.6719057 C58.3566348,57.8094303 58.4547461,57.9371316 58.5724798,58.0550098 C58.6509688,58.1335953 58.7490802,58.2220039 58.8668138,58.3202358 C58.9845475,58.4184676 59.1219034,58.5068762 59.2788815,58.5854617 C59.3966152,58.6247544 59.5339711,58.6640472 59.6909492,58.7033399 C59.8479274,58.7426326 60.0245278,58.762279 60.2207506,58.762279 C60.3777287,58.762279 60.5347069,58.7426326 60.6916851,58.7033399 C60.8486632,58.6640472 61.0056414,58.6247544 61.1626196,58.5854617 C61.2803532,58.5068762 61.3980868,58.4184676 61.5158205,58.3202358 C61.6335541,58.2220039 61.7512877,58.1335953 61.8690213,58.0550098 C61.9475104,57.9371316 62.0259995,57.8094303 62.1044886,57.6719057 C62.1829777,57.5343811 62.2614668,57.3870334 62.3399558,57.2298625 C62.3792004,57.0726916 62.4086338,56.9155206 62.4282561,56.7583497 C62.4478783,56.6011788 62.4576895,56.4440079 62.4576895,56.2868369 C62.4576895,56.129666 62.4478783,55.9626719 62.4282561,55.7858546 C62.4086338,55.6090373 62.3792004,55.4616896 62.3399558,55.3438114 C62.2614668,55.1866405 62.1829777,55.0392927 62.1044886,54.9017682 C62.0259995,54.7642436 61.9475104,54.6365422 61.8690213,54.518664 C61.7905323,54.4400786 61.7120432,54.3702248 61.6335541,54.3091028 L61.5158205,54.2239686 L61.1626196,53.9882122 L60.6916851,53.870334 L60.5347069,53.83759 C60.4300548,53.8201266 60.3254027,53.8113949 60.2207506,53.8113949 Z M28.5504047,54.2239686 L27.6085357,56.935167 L29.4922737,56.935167 L28.5504047,54.2239686 Z M37.3804268,53.9292731 L35.9676233,53.9292731 L35.9676233,55.9921415 L37.3804268,55.9921415 C37.537405,55.9921415 37.684572,55.9626719 37.8219279,55.9037328 C37.9592838,55.8447937 38.0672063,55.7760314 38.1456954,55.697446 C38.263429,55.5795678 38.3419181,55.4616896 38.3811626,55.3438114 C38.4204072,55.2259332 38.4400294,55.0884086 38.4400294,54.9312377 C38.4400294,54.7740668 38.410596,54.6365422 38.3517292,54.518664 C38.2928624,54.4007859 38.2241844,54.302554 38.1456954,54.2239686 C38.0279617,54.1060904 37.9102281,54.0275049 37.7924945,53.9882122 C37.6747609,53.9489194 37.537405,53.9292731 37.3804268,53.9292731 Z M45.857248,53.9292731 L44.5033113,53.9292731 L44.5033113,55.9921415 L45.857248,55.9921415 C46.0534707,55.9921415 46.2104489,55.9626719 46.3281825,55.9037328 C46.4459161,55.8447937 46.5636497,55.7760314 46.6813834,55.697446 C46.7598725,55.5795678 46.8187393,55.4616896 46.8579838,55.3438114 C46.8972284,55.2259332 46.9168506,55.0884086 46.9168506,54.9312377 C46.9168506,54.7740668 46.8972284,54.6365422 46.8579838,54.518664 C46.8187393,54.4007859 46.7598725,54.302554 46.6813834,54.2239686 C46.5636497,54.1060904 46.436105,54.0275049 46.2987491,53.9882122 C46.1613932,53.9489194 46.0142261,53.9292731 45.857248,53.9292731 Z" id="Combined-Shape" fill="#1C1C1C"></path>
                </g>
            </g>
        </g>
    </g>
</svg>